<?xml version="1.0" encoding="iso-8859-1"?>
<!-- Generator: Adobe Illustrator 19.0.0, SVG Export Plug-In . SVG Version: 6.00 Build 0)  -->
<svg version="1.1" id="Capa_1" xmlns="http://www.w3.org/2000/svg" xmlns:xlink="http://www.w3.org/1999/xlink" x="0px" y="0px"
	 viewBox="0 0 471.999 471.999" style="enable-background:new 0 0 471.999 471.999;" xml:space="preserve">
<g>
	<g>
		<path d="M176,63.999c-22.091,0-40,17.909-40,40s17.909,40,40,40c22.091,0,40-17.909,40-40
			C215.973,81.919,198.08,64.025,176,63.999z M176,127.999c-13.255,0-24-10.745-24-24c0.014-3.564,0.834-7.078,2.4-10.28
			l31.88,31.88C183.078,127.165,179.564,127.985,176,127.999z M197.6,114.279l-31.88-31.88c3.202-1.566,6.716-2.386,10.28-2.4
			c13.255,0,24,10.745,24,24C199.986,107.563,199.165,111.077,197.6,114.279z"/>
	</g>
</g>
<g>
	<g>
		<path d="M416,55.999v-48c0-4.418-3.583-8-8.001-7.999c-0.356,0-0.711,0.024-1.063,0.071l-206.4,27.76v0.104
			c-7.922-2.591-16.201-3.919-24.536-3.936c-12.324-0.361-24.546,2.332-35.576,7.84c-6.064,3.032-12.376,6.28-19.256,9.824
			C81.095,62.153,55.914,103.4,56,148.407v91.592c0.035,30.913,25.087,55.965,56,56c0.715-0.043,1.42-0.186,2.096-0.424
			l6.032,18.112l1.192,11.944c-5.502-2.502-11.713-2.97-17.528-1.32l-41.984,12c-3.435,0.979-5.805,4.116-5.808,7.688v120
			c0,4.418,3.582,8,8,8h224c4.418,0,8-3.582,8-8v-120c0.001-3.575-2.37-6.716-5.808-7.696l-41.976-12
			c-5.812-1.673-12.031-1.216-17.536,1.288l1.192-11.92l6.032-18.112c0.675,0.244,1.38,0.392,2.096,0.44
			c30.913-0.035,55.965-25.087,56-56v-80h112c4.418,0,8-3.582,8-8v-48c0-4.418-3.582-8-8-8H285.992
			c-1.433-4.706-3.236-9.291-5.392-13.712l128.536-18.4C413.063,63.324,415.984,59.967,416,55.999z M231.664,347.999
			c0.114-1.179,0.445-2.326,0.976-3.384c2.058-4.126,6.77-6.193,11.2-4.912L280,350.031v105.968H72V350.031l36.184-10.336
			c5.104-1.435,10.405,1.54,11.84,6.644c0.153,0.543,0.257,1.099,0.312,1.66l6.328,69.6c1.237,13.516,13.197,23.471,26.713,22.234
			c7.39-0.676,14.078-4.655,18.199-10.826c1.616-2.443,4.907-3.114,7.35-1.498c0.595,0.394,1.105,0.903,1.498,1.498
			c7.537,11.288,22.798,14.328,34.086,6.791c6.171-4.121,10.15-10.809,10.826-18.199L231.664,347.999z M184,378.951v0.448
			c-0.097,11.279,8.968,20.502,20.248,20.599c2.287,0.02,4.562-0.345,6.728-1.079l-1.6,17.28c-0.416,4.714-4.574,8.198-9.287,7.782
			c-2.589-0.228-4.935-1.62-6.377-3.782c-6.526-9.795-19.757-12.445-29.553-5.919c-2.345,1.562-4.357,3.574-5.919,5.919
			c-2.625,3.937-7.944,5.001-11.882,2.377c-2.163-1.442-3.554-3.787-3.782-6.377l-1.6-17.28
			c10.674,3.646,22.283-2.052,25.929-12.727c0.747-2.186,1.117-4.483,1.095-6.793v-0.448
			C173.279,380.029,178.721,380.029,184,378.951z M168,362.439v-50.44c0-4.418,3.582-8,8-8s8,3.582,8,8v50.44
			C178.782,364.007,173.218,364.007,168,362.439z M232,262.679l-15.592,46.792c-0.186,0.561-0.31,1.14-0.368,1.728l-6.872,68.664
			c-0.205,2.528-2.421,4.41-4.949,4.205c-2.419-0.197-4.268-2.242-4.219-4.669v-67.4c0-13.255-10.745-24-24-24s-24,10.745-24,24
			v67.4c0.045,2.536-1.974,4.628-4.509,4.673c-2.422,0.043-4.461-1.803-4.659-4.217L136,311.199
			c-0.058-0.588-0.182-1.167-0.368-1.728L120,262.703v-34.4c0.002-11.205,9.087-20.286,20.292-20.284
			c5.379,0.001,10.537,2.138,14.34,5.94c11.955,11.425,30.781,11.425,42.736,0c7.924-7.922,20.77-7.92,28.692,0.004
			c3.797,3.798,5.933,8.946,5.94,14.316V262.679z M232,198.215c-14.393-9.727-33.663-7.878-45.944,4.408
			c-5.627,5.374-14.485,5.374-20.112,0c-12.281-12.286-31.551-14.135-45.944-4.408v-37.096c31.102,30.578,80.999,30.496,112-0.184
			V198.215z M280,239.999c-0.021,19.002-13.387,35.375-32,39.2v-119.2h32V239.999z M400,111.999v32H229.6
			c-2.271,0-4.435,0.966-5.952,2.656c-23.479,26.314-63.846,28.613-90.16,5.133c-5.884-5.25-10.745-11.545-14.336-18.565
			c-1.979-3.95-6.786-5.548-10.736-3.569c-2.733,1.369-4.447,4.176-4.416,7.233v142.312c-18.613-3.825-31.979-20.198-32-39.2
			v-91.592c-0.042-39.132,21.915-74.966,56.8-92.696c6.48-3.336,12.728-6.544,18.744-9.552c8.821-4.4,18.605-6.518,28.456-6.16
			c35.33,0.04,63.96,28.67,64,64c0,4.418,3.582,8,8,8H400z M253.896,86.095l9.72-1.384c2.227,3.556,4.067,7.34,5.488,11.288H255.6
			C255.246,92.664,254.676,89.356,253.896,86.095z M400,49.063l-151.368,21.6C243.216,58.905,235.04,48.63,224.8,40.711L400,17.151
			V49.063z"/>
	</g>
</g>
<g>
</g>
<g>
</g>
<g>
</g>
<g>
</g>
<g>
</g>
<g>
</g>
<g>
</g>
<g>
</g>
<g>
</g>
<g>
</g>
<g>
</g>
<g>
</g>
<g>
</g>
<g>
</g>
<g>
</g>
</svg>
