<?xml version="1.0" encoding="iso-8859-1"?>
<!-- Generator: Adobe Illustrator 19.0.0, SVG Export Plug-In . SVG Version: 6.00 Build 0)  -->
<svg version="1.1" id="Layer_1" xmlns="http://www.w3.org/2000/svg" xmlns:xlink="http://www.w3.org/1999/xlink" x="0px" y="0px"
	 viewBox="0 0 511.999 511.999" style="enable-background:new 0 0 511.999 511.999;" xml:space="preserve">
<polyline style="fill:#E0E0D3;" points="80.183,8.694 476.001,8.694 476.001,503.306 80.183,503.306 "/>
<g>
	<path style="fill:#333E48;" d="M398.742,440.216c-2.084,0-4.144-0.749-5.767-2.186c-2.596-2.299-3.576-5.92-2.497-9.216
		c0.635-1.939,0.983-3.937,1.107-5.935c-5.554,8.367-12.607,14.962-20.884,16.779c-5.76,1.265-14.435,0.778-23.039-8.729
		c-14.349-15.854-4.564-33.637,2.581-46.622c8.425-15.313,8.188-17.739,3.637-20.725c-3.504-2.299-9.492-0.846-13.897,0.777
		c-27.751,10.228-65.638,52.266-68.818,63.171c-1.345,4.61-6.173,7.257-10.781,5.912c-4.609-1.345-7.257-6.172-5.912-10.781
		c5.18-17.757,48.063-63.031,79.499-74.618c11.865-4.374,21.774-4.036,29.45,1c8.527,5.596,12.206,13.61,10.638,23.173
		c-1.14,6.951-4.922,13.825-8.58,20.472c-9.873,17.943-9.022,22.041-4.923,26.57c3.641,4.023,5.733,3.564,6.419,3.414
		c5.224-1.147,13.588-11.79,18.542-27.613c1.022-3.268,3.868-5.63,7.268-6.035c3.405-0.407,6.721,1.224,8.483,4.159
		c0.696,1.158,4.29,7.415,6.339,16.088c2.56-4.906,4.761-10.454,6.728-15.849c0.944-2.585,3.053-4.572,5.692-5.356
		c2.638-0.782,5.493-0.271,7.693,1.38c3.972,2.979,17.01,13.807,18.023,28.059c0.365,5.135-0.745,12.802-8.108,20.164
		c-3.395,3.395-8.901,3.395-12.295,0c-3.395-3.395-3.395-8.901,0-12.295c2.954-2.954,3.16-5.202,3.058-6.636
		c-0.158-2.227-1.262-4.577-2.773-6.787c-5.402,11.948-12.405,22.394-23.202,27.445
		C401.249,439.947,399.991,440.216,398.742,440.216z"/>
	<path style="fill:#333E48;" d="M284.851,454.268c-0.14,0-0.281-0.003-0.421-0.009c-4.796-0.23-8.498-4.303-8.27-9.099
		c0.465-9.735,14.733-27.756,17.588-31.27c8.504-10.462,21.102-23.267,32.827-24.849c4.763-0.641,9.136,2.696,9.778,7.454
		c0.642,4.759-2.695,9.136-7.454,9.778c-3.385,0.457-11.331,6.132-20.777,17.513c-8.631,10.398-13.95,19.935-14.616,22.551
		C293.112,450.824,289.346,454.268,284.851,454.268z"/>
</g>
<g>
	<path style="fill:#5C6670;" d="M416.747,88.94H139.441c-4.802,0-8.694-3.893-8.694-8.694c0-4.802,3.893-8.694,8.694-8.694h277.306
		c4.802,0,8.694,3.893,8.694,8.694C425.441,85.047,421.548,88.94,416.747,88.94z"/>
	<path style="fill:#5C6670;" d="M416.747,129.599H312.871c-4.802,0-8.694-3.893-8.694-8.694s3.893-8.694,8.694-8.694h103.877
		c4.802,0,8.694,3.893,8.694,8.694C425.441,125.707,421.548,129.599,416.747,129.599z"/>
	<path style="fill:#5C6670;" d="M286.207,129.599H139.441c-4.802,0-8.694-3.893-8.694-8.694s3.893-8.694,8.694-8.694h146.765
		c4.802,0,8.694,3.893,8.694,8.694C294.901,125.707,291.008,129.599,286.207,129.599z"/>
	<path style="fill:#5C6670;" d="M416.747,170.258H139.441c-4.802,0-8.694-3.893-8.694-8.694s3.893-8.694,8.694-8.694h277.306
		c4.802,0,8.694,3.893,8.694,8.694S421.548,170.258,416.747,170.258z"/>
	<path style="fill:#5C6670;" d="M416.747,210.917h-63.302c-4.802,0-8.694-3.893-8.694-8.694s3.893-8.694,8.694-8.694h63.303
		c4.802,0,8.694,3.893,8.694,8.694C425.441,207.024,421.548,210.917,416.747,210.917z"/>
	<path style="fill:#5C6670;" d="M326.782,210.917H139.441c-4.802,0-8.694-3.893-8.694-8.694s3.893-8.694,8.694-8.694h187.341
		c4.802,0,8.694,3.893,8.694,8.694S331.583,210.917,326.782,210.917z"/>
	<path style="fill:#5C6670;" d="M416.747,251.575H261.863c-4.802,0-8.694-3.893-8.694-8.694s3.893-8.694,8.694-8.694h154.883
		c4.802,0,8.694,3.893,8.694,8.694S421.548,251.575,416.747,251.575z"/>
	<path style="fill:#5C6670;" d="M236.36,251.575h-96.918c-4.802,0-8.694-3.893-8.694-8.694s3.893-8.694,8.694-8.694h96.918
		c4.802,0,8.694,3.893,8.694,8.694S241.162,251.575,236.36,251.575z"/>
	<path style="fill:#5C6670;" d="M346.489,292.234H139.441c-4.802,0-8.694-3.893-8.694-8.694c0-4.802,3.893-8.694,8.694-8.694
		h207.048c4.802,0,8.694,3.893,8.694,8.694C355.183,288.341,351.291,292.234,346.489,292.234z"/>
</g>
<rect x="106.847" y="295.887" transform="matrix(-0.7071 0.7071 -0.7071 -0.7071 486.4894 551.5957)" style="fill:#0082CA;" width="44.318" height="161.332"/>
<rect x="39.659" y="295.006" transform="matrix(-0.7071 0.7071 -0.7071 -0.7071 324.2817 484.4022)" style="fill:#333E48;" width="44.318" height="28.712"/>
<g>
	
		<rect x="138.008" y="372.08" transform="matrix(-0.7071 -0.7071 0.7071 -0.7071 -28.332 776.7429)" style="fill:#FFFFFF;" width="17.389" height="44.318"/>
	
		<rect x="115.809" y="349.875" transform="matrix(-0.7071 -0.7071 0.7071 -0.7071 -50.5277 723.1384)" style="fill:#FFFFFF;" width="17.389" height="44.318"/>
</g>
<path style="fill:#1E252B;" d="M476.001,0H80.183c-4.802,0-8.694,3.893-8.694,8.694v267.209c-1.262-0.686-2.687-1.058-4.15-1.058
	c-2.306,0-4.518,0.916-6.148,2.547l-31.34,31.339c-1.631,1.63-2.547,3.842-2.547,6.148c0,2.306,0.916,4.518,2.547,6.148
	l14.154,14.154l-8.633,8.633c-1.631,1.63-2.547,3.842-2.547,6.148c0,2.306,0.916,4.518,2.547,6.148l36.115,36.114v111.082
	c0,4.802,3.893,8.694,8.694,8.694h395.819c4.802,0,8.694-3.893,8.694-8.694V8.694C484.695,3.893,480.802,0,476.001,0z
	 M71.489,367.633l-17.672-17.672l2.485-2.484l15.186,15.187V367.633z M62.45,329.033l-14.154-14.154l19.043-19.043l14.153,14.154
	l107.933,107.932l-19.044,19.043L62.45,329.033z M467.306,494.611H88.878v-114.56l75.356,75.357
	c1.697,1.698,3.923,2.547,6.148,2.547c2.225,0,4.45-0.849,6.148-2.547l9.522-9.522l11.526,11.528
	c1.697,1.698,3.923,2.547,6.148,2.547c2.225,0,4.45-0.849,6.148-2.547c3.395-3.395,3.395-8.9,0-12.295l-11.526-11.526l9.522-9.522
	c1.631-1.63,2.547-3.842,2.547-6.148c0-2.306-0.916-4.518-2.547-6.148L93.787,297.695l-4.911-4.911V17.389h378.43V494.611z"/>
<g>
</g>
<g>
</g>
<g>
</g>
<g>
</g>
<g>
</g>
<g>
</g>
<g>
</g>
<g>
</g>
<g>
</g>
<g>
</g>
<g>
</g>
<g>
</g>
<g>
</g>
<g>
</g>
<g>
</g>
</svg>
