<?xml version="1.0" encoding="iso-8859-1"?>
<!-- Generator: Adobe Illustrator 19.0.0, SVG Export Plug-In . SVG Version: 6.00 Build 0)  -->
<svg version="1.1" id="Capa_1" xmlns="http://www.w3.org/2000/svg" xmlns:xlink="http://www.w3.org/1999/xlink" x="0px" y="0px"
	 viewBox="0 0 436.681 436.681" style="enable-background:new 0 0 436.681 436.681;" xml:space="preserve">
<g>
	<g>
		<path d="M327.571,214.289c-3.645,0-6.601,2.959-6.601,6.601c0,61.594-26.293,200.673-51.494,202.571
			c-4.775-4.045-9.489-30.99-12.629-48.94c-7.141-40.789-14.517-82.971-38.533-83.057c-20.248,0.089-27.477,36.482-35.85,78.626
			c-3.922,19.732-9.817,49.391-15.189,53.378c-25.218-1.649-51.555-140.926-51.555-202.578c0-3.645-2.956-6.601-6.601-6.601
			s-6.601,2.959-6.601,6.601c0,30.761,18.79,215.791,65.208,215.791c14.292,0,19.323-21.955,27.679-64.021
			c4.721-23.75,13.503-67.956,22.914-67.997c12.916,0.048,20.808,45.172,25.525,72.131c6.308,36.065,10.479,59.887,25.115,59.887
			c46.418,0,65.212-185.03,65.215-215.791C334.172,217.245,331.216,214.289,327.571,214.289z"/>
	</g>
</g>
<g>
	<g>
		<path d="M198.929,96.041c-0.29-3.758-3.584-6.56-7.328-6.284c-18.719,1.437-36.113,4.42-50.295,8.615
			c-3.618,1.068-5.68,4.867-4.611,8.482c0.881,2.973,3.598,4.895,6.543,4.895c0.645,0,1.294-0.092,1.939-0.283
			c13.274-3.929,29.693-6.731,47.469-8.096C196.407,103.079,199.219,99.802,198.929,96.041z"/>
	</g>
</g>
<g>
	<g>
		<path d="M295.404,98.379c-14.172-4.195-31.553-7.175-50.261-8.619c-3.792-0.273-7.042,2.522-7.332,6.281s2.522,7.042,6.281,7.332
			c17.77,1.369,34.171,4.171,47.439,8.1c0.645,0.191,1.297,0.283,1.939,0.283c2.946,0,5.663-1.922,6.547-4.895
			C301.083,103.25,299.022,99.447,295.404,98.379z"/>
	</g>
</g>
<g>
	<g>
		<path d="M329.544,54.907c-2.864-0.874-5.987,0.246-7.656,2.748l-48.934,73.4l-48.934-73.4c-2.533-3.799-8.827-3.799-11.36,0
			l-48.934,73.4l-48.934-73.4c-1.669-2.505-4.779-3.622-7.656-2.748c-2.881,0.87-4.85,3.526-4.85,6.533v157.013
			c0,2.83,1.748,5.366,4.393,6.38c2.277,0.87,56.422,21.296,111.66,21.296s109.384-20.429,111.66-21.299
			c2.645-1.01,4.393-3.546,4.393-6.376V61.44C334.394,58.433,332.425,55.777,329.544,54.907z M320.741,213.644
			c-13.868,4.782-58.402,18.831-102.4,18.831c-43.93,0-88.515-14.056-102.4-18.835V83.988l42.107,63.16
			c2.533,3.799,8.827,3.799,11.36,0l48.934-73.4l48.934,73.4c2.533,3.799,8.827,3.799,11.36,0l42.107-63.16V213.644z"/>
	</g>
</g>
<g>
	<g>
		<path d="M218.341,0c-3.768,0-6.827,3.058-6.827,6.827V40.96c0,3.768,3.058,6.827,6.827,6.827s6.827-3.055,6.827-6.827V6.827
			C225.167,3.058,222.109,0,218.341,0z"/>
	</g>
</g>
<g>
	<g>
		<path d="M169.581,44.274l-20.48-34.133c-1.939-3.239-6.13-4.277-9.366-2.341c-3.236,1.939-4.28,6.134-2.342,9.366l20.48,34.133
			c1.28,2.133,3.54,3.314,5.861,3.314c1.198,0,2.406-0.314,3.505-0.973C170.476,51.702,171.52,47.507,169.581,44.274z"/>
	</g>
</g>
<g>
	<g>
		<path d="M296.946,7.799c-3.232-1.942-7.431-0.894-9.366,2.342L267.1,44.274c-1.939,3.232-0.891,7.427,2.342,9.366
			c1.099,0.659,2.307,0.973,3.505,0.973c2.321,0,4.581-1.178,5.861-3.314l20.48-34.133C301.227,13.933,300.179,9.738,296.946,7.799z
			"/>
	</g>
</g>
<g>
</g>
<g>
</g>
<g>
</g>
<g>
</g>
<g>
</g>
<g>
</g>
<g>
</g>
<g>
</g>
<g>
</g>
<g>
</g>
<g>
</g>
<g>
</g>
<g>
</g>
<g>
</g>
<g>
</g>
</svg>
