<?xml version="1.0" encoding="iso-8859-1"?>
<!-- Generator: Adobe Illustrator 19.0.0, SVG Export Plug-In . SVG Version: 6.00 Build 0)  -->
<svg version="1.1" id="Capa_1" xmlns="http://www.w3.org/2000/svg" xmlns:xlink="http://www.w3.org/1999/xlink" x="0px" y="0px"
	 viewBox="0 0 395.947 395.947" style="enable-background:new 0 0 395.947 395.947;" xml:space="preserve">
<g>
	<g>
		<path d="M262.827,0c-12.343,0-24.04,5.54-35.348,10.895c-10.404,4.932-20.231,9.585-29.505,9.585s-19.101-4.652-29.505-9.585
			C157.16,5.54,145.463,0,133.12,0C85.654,0,51.2,51.681,51.2,122.88c0,54.04,26.348,273.067,81.92,273.067
			c16.995,0,23.62-28.979,33.864-80.196c6.567-32.826,17.555-87.764,30.966-87.822c17.913,0.061,27.778,56.061,34.304,93.112
			c7.943,45.107,13.193,74.906,30.573,74.906c55.573,0,81.92-219.027,81.92-273.067C344.747,51.681,310.292,0,262.827,0z
			 M263.045,382.327c-6.622-2.775-13.076-39.41-17.347-63.659c-9.032-51.275-18.371-104.294-47.756-104.397
			c-24.607,0.106-34.191,48.046-44.346,98.799c-4.983,24.921-13.326,66.628-20.477,69.222c-35.809,0-68.267-186.754-68.267-259.413
			c0-63.29,28.71-109.227,68.267-109.227c9.274,0,19.101,4.652,29.505,9.585c11.308,5.356,23.006,10.895,35.349,10.895
			s24.04-5.54,35.349-10.895c10.404-4.932,20.231-9.585,29.505-9.585c39.557,0,68.267,45.937,68.267,109.227
			c0,31.727-7.636,98.628-20.419,155.662C293.54,355.034,274.722,382.29,263.045,382.327z"/>
	</g>
</g>
<g>
	<g>
		<path d="M314.201,76.626c-0.331-16.35-5.376-28.238-14.998-35.335c-19.405-14.298-51.091-5.181-76.554,2.144
			c-9.489,2.727-18.449,5.308-23.385,5.478c-8.823,0.324-19.207-2.468-30.198-5.396c-15.336-4.093-31.194-8.322-45.332-4.628
			c-12.476,3.26-12.725,15.295-12.889,23.265c-0.096,4.564-0.195,9.284-1.84,12.524c-1.71,3.362-0.372,7.472,2.987,9.178
			c3.379,1.731,7.472,0.365,9.178-2.987c3.069-6.025,3.205-12.619,3.325-18.435c0.184-8.892,0.843-9.851,2.686-10.332
			c10.663-2.792,24.743,0.976,38.362,4.608c11.476,3.065,23.344,6.229,34.195,5.854c6.618-0.232,15.92-2.908,26.685-6.004
			c21.391-6.154,50.688-14.585,64.672-4.277c6.117,4.509,9.209,12.564,9.448,24.617c0.498,24.928-23.593,27.931-62.935,30.771
			c-31.403,2.266-66.987,4.833-86.098,27.901c-39.933,48.2-37.202,98.666-34.314,152.091c0.601,11.086,1.219,22.552,1.43,33.987
			c0.068,3.727,3.113,6.7,6.823,6.7c0.044,0,0.085,0,0.137-0.003c3.772-0.068,6.772-3.185,6.7-6.953
			c-0.218-11.677-0.843-23.265-1.451-34.471c-2.737-50.685-5.325-98.557,31.194-142.643c15.391-18.579,46.49-20.821,76.565-22.992
			C276.152,118.576,314.982,115.777,314.201,76.626z"/>
	</g>
</g>
<g>
	<g>
		<path d="M280.658,213.374c0.72-49.347,0.178-50.831-29.146-79.387c-5.547-5.4-12.206-11.882-20.197-20.053
			c-2.635-2.7-6.963-2.748-9.653-0.106c-2.697,2.635-2.741,6.96-0.106,9.653c8.083,8.264,14.817,14.824,20.432,20.289
			c25.665,24.996,25.665,24.996,25.02,69.403c-0.338,23.05-0.843,57.883,1.669,112.65c0.171,3.659,3.188,6.513,6.813,6.513
			c0.106,0,0.212-0.003,0.321-0.003c3.765-0.174,6.68-3.366,6.506-7.134C279.822,270.841,280.323,236.257,280.658,213.374z"/>
	</g>
</g>
<g>
	<g>
		<path d="M158.44,140.824c-1.027-3.625-4.796-5.721-8.431-4.704c-13.674,3.874-21.873,5.366-27.3,6.352
			c-12.23,2.229-13.841,3.383-21.511,15.425c-1.481,2.328-3.294,5.178-5.635,8.687c-2.089,3.137-1.239,7.376,1.901,9.465
			c1.161,0.775,2.475,1.143,3.775,1.143c2.208,0,4.372-1.065,5.69-3.045c2.4-3.601,4.263-6.53,5.786-8.919
			c5.089-7.98,5.089-7.98,12.438-9.322c5.687-1.034,14.278-2.598,28.583-6.653C157.365,148.227,159.471,144.452,158.44,140.824z"/>
	</g>
</g>
<g>
	<g>
		<path d="M157.092,216.576l-17.879-35.342c-1.703-3.359-5.803-4.707-9.175-3.007c-3.362,1.703-4.71,5.81-3.007,9.175l17.879,35.342
			c1.198,2.376,3.604,3.744,6.096,3.744c1.038,0,2.089-0.239,3.079-0.737C157.447,224.048,158.795,219.942,157.092,216.576z"/>
	</g>
</g>
<g>
	<g>
		<path d="M124.969,224.925c-3.154-2.062-7.39-1.157-9.448,1.993l-25.545,39.223c-2.058,3.161-1.167,7.39,1.993,9.448
			c1.15,0.751,2.444,1.106,3.721,1.106c2.232,0,4.417-1.092,5.728-3.099l25.545-39.223
			C129.021,231.212,128.126,226.983,124.969,224.925z"/>
	</g>
</g>
<g>
	<g>
		<path d="M265.95,149.511c-3.215-1.99-7.414-1.01-9.404,2.191l-23.412,37.615c-1.99,3.202-1.01,7.41,2.191,9.404
			c1.123,0.696,2.372,1.031,3.601,1.031c2.28,0,4.509-1.14,5.803-3.222l23.412-37.615
			C270.131,155.713,269.152,151.504,265.95,149.511z"/>
	</g>
</g>
<g>
	<g>
		<path d="M302.633,237.025l-22.31-48.722c-1.57-3.43-5.625-4.939-9.049-3.362c-3.427,1.57-4.932,5.618-3.362,9.049l22.31,48.722
			c1.147,2.505,3.622,3.983,6.209,3.983c0.949,0,1.915-0.195,2.84-0.621C302.698,244.504,304.203,240.456,302.633,237.025z"/>
	</g>
</g>
<g>
	<g>
		<path d="M277.808,262.257c-2.792-2.529-7.107-2.311-9.643,0.478l-24.453,26.982c-2.529,2.792-2.314,7.11,0.478,9.643
			c1.307,1.184,2.946,1.768,4.581,1.768c1.86,0,3.714-0.758,5.062-2.246l24.453-26.982
			C280.815,269.107,280.6,264.789,277.808,262.257z"/>
	</g>
</g>
<g>
</g>
<g>
</g>
<g>
</g>
<g>
</g>
<g>
</g>
<g>
</g>
<g>
</g>
<g>
</g>
<g>
</g>
<g>
</g>
<g>
</g>
<g>
</g>
<g>
</g>
<g>
</g>
<g>
</g>
</svg>
