<svg height="512" viewBox="0 0 64 64" width="512" xmlns="http://www.w3.org/2000/svg"><path d="m59 45h-.864q.355-.767.754-1.544a9.448 9.448 0 0 0 1.11-4.456c0-4.056-2.523-7-6-7a5.978 5.978 0 0 0 -3.607 1.2.762.762 0 0 1 -.787 0 5.973 5.973 0 0 0 -3.606-1.2c-3.477 0-6 2.944-6 7a9.455 9.455 0 0 0 1.11 4.457c.265.515.5 1.028.725 1.543h-19.42l8.585-8.586 1.293 1.293a1 1 0 0 0 1.414 0l2.293-2.293.293.293a1 1 0 0 0 1.414 0l13.293-13.293 1.293 1.293a1 1 0 0 0 1.414 0l3-3a1 1 0 0 0 0-1.414l-2.293-2.293 1.586-1.586 1.293 1.293a1 1 0 0 0 1.414 0l3-3a1 1 0 0 0 0-1.414l-8-8a1 1 0 0 0 -1.414 0l-3 3a1 1 0 0 0 0 1.414l1.293 1.293-1.586 1.586-2.293-2.293a1 1 0 0 0 -1.414 0l-3 3a1 1 0 0 0 0 1.414l1.293 1.293-13.293 13.293a1 1 0 0 0 0 1.414l.293.293-2.293 2.293a1 1 0 0 0 0 1.414l1.293 1.293-5.766 5.767a9.436 9.436 0 0 0 .18-1.767c0-4.056-2.523-7-6-7a5.978 5.978 0 0 0 -3.607 1.2.762.762 0 0 1 -.787 0 5.973 5.973 0 0 0 -3.606-1.2c-3.477 0-6 2.944-6 7a9.455 9.455 0 0 0 1.11 4.457c.265.515.5 1.028.725 1.543h-.835a3 3 0 0 0 -3 3v10a1 1 0 0 0 1 1h58a1 1 0 0 0 1-1v-10a3 3 0 0 0 -3-3zm-6-38.586 6.586 6.586-1.586 1.586-6.586-6.586zm-1 5 2.586 2.586-1.586 1.586-2.586-2.586zm-6 0 8.586 8.586-1.586 1.586-8.586-8.586zm3.586 9.586-2 2h-9.172l6.586-6.586zm-13.172 4h9.172l-8.586 8.586-4.586-4.586zm-4.414 6.414 2.586 2.586-1.586 1.586-2.586-2.586zm14 2.586a4.021 4.021 0 0 1 2.393.8 2.759 2.759 0 0 0 3.213 0 4.026 4.026 0 0 1 2.394-.8c2.355 0 4 2.056 4 5a7.408 7.408 0 0 1 -.89 3.543c-.483.941-.918 1.876-1.309 2.79a10.721 10.721 0 0 1 -5.801 1.667 11.369 11.369 0 0 1 -5.878-1.661 26.5 26.5 0 0 0 -1.232-2.8 7.415 7.415 0 0 1 -.89-3.539c0-2.944 1.645-5 4-5zm-36 0a4.021 4.021 0 0 1 2.393.8 2.759 2.759 0 0 0 3.213 0 4.026 4.026 0 0 1 2.394-.8c2.355 0 4 2.056 4 5a7.408 7.408 0 0 1 -.89 3.543c-.483.941-.918 1.876-1.309 2.79a10.721 10.721 0 0 1 -5.801 1.667 11.369 11.369 0 0 1 -5.878-1.661 26.5 26.5 0 0 0 -1.232-2.8 7.415 7.415 0 0 1 -.89-3.539c0-2.944 1.645-5 4-5zm50 23h-56v-9a1 1 0 0 1 1-1h2.005a13.27 13.27 0 0 0 7 2 12.807 12.807 0 0 0 6.908-2h22.1a13.27 13.27 0 0 0 6.987 2 12.807 12.807 0 0 0 6.908-2h2.092a1 1 0 0 1 1 1z"/><path d="m17.555 37.832-1.11-1.664a4.607 4.607 0 0 1 -4.894 0l-1.106 1.667a7.164 7.164 0 0 0 3.672 1.065 6.1 6.1 0 0 0 3.438-1.068z"/><path d="m53.555 37.832-1.11-1.664a4.606 4.606 0 0 1 -4.894 0l-1.106 1.667a7.164 7.164 0 0 0 3.672 1.065 6.1 6.1 0 0 0 3.438-1.068z"/><path d="m18.5 18.199h1.999v8.602h-1.999z" transform="matrix(.814 -.581 .581 .814 -9.446 15.525)"/><path d="m13 24.146h2v6.708h-2z" transform="matrix(.447 -.894 .894 .447 -16.858 27.724)"/><path d="m26 17h2v7h-2z"/><path d="m25 49h8v2h-8z"/><path d="m32 53h7v2h-7z"/><path d="m24 53h2v2h-2z"/><path d="m38 49h2v2h-2z"/></svg>