<?xml version="1.0" encoding="iso-8859-1"?>
<!-- Generator: Adobe Illustrator 19.0.0, SVG Export Plug-In . SVG Version: 6.00 Build 0)  -->
<svg version="1.1" id="Capa_1" xmlns="http://www.w3.org/2000/svg" xmlns:xlink="http://www.w3.org/1999/xlink" x="0px" y="0px"
	 viewBox="0 0 482.811 482.811" style="enable-background:new 0 0 482.811 482.811;" xml:space="preserve">
<g>
	<g>
		<path d="M475.59,268.571l-85.216-24.16c-8.617-2.42-17.785-1.988-26.136,1.232l4.8-11.104l16.896-17.744
			c21.514-22.652,37.489-49.98,46.672-79.84c12.022-39.292-10.084-80.89-49.376-92.913c-9.609-2.94-19.713-3.903-29.704-2.831
			c-27.849,2.941-55.693-5.592-77.112-23.632c-31.382-26.524-78.325-22.587-104.849,8.796c-6.488,7.676-11.354,16.588-14.303,26.196
			c-9.12,29.882-11.193,61.471-6.056,92.288l4.056,24.168l-17.312,91.672c-10.136-14.591-28.42-21.134-45.512-16.288l-85.216,24.16
			c-3.441,0.977-5.816,4.119-5.816,7.696v198.544c0,4.418,3.582,8,8,8h464c4.418,0,8-3.582,8-8V276.267
			C481.406,272.69,479.031,269.548,475.59,268.571z M148.142,292.931l23.104-122.336c0.164-0.929,0.164-1.879,0-2.808l-4.296-25.6
			c-4.719-28.37-2.802-57.447,5.6-84.952c9.471-30.831,42.143-48.147,72.975-38.676c7.535,2.315,14.524,6.131,20.545,11.22
			c24.764,20.874,56.968,30.749,89.176,27.344c32.069-3.442,60.857,19.765,64.299,51.834c0.842,7.84,0.087,15.77-2.219,23.31
			c-8.462,27.484-23.171,52.637-42.976,73.488l-17.88,18.776c-0.653,0.68-1.178,1.471-1.552,2.336l-49.4,114.28
			c-3.241,7.489-11.94,10.933-19.43,7.691c-6.141-2.658-9.73-9.112-8.746-15.731l17.48-116.88
			c2.528-17.538-8.052-34.316-24.968-39.592c-3.356-1.033-6.849-1.556-10.36-1.552c-13.834,0.009-26.449,7.914-32.488,20.36
			L175.99,302.051c-3.522,7.361-12.345,10.473-19.706,6.951C150.24,306.11,146.898,299.514,148.142,292.931z M270.686,269.435
			c-19.671,6.593-41.087,5.672-60.12-2.584l30.84-64.504c4.703-9.917,16.554-14.143,26.47-9.44
			c7.929,3.76,12.453,12.277,11.13,20.952v-0.04L270.686,269.435z M145.406,321.019c13.746,9.64,32.705,6.311,42.344-7.436
			c1.025-1.461,1.919-3.01,2.672-4.628l13.256-27.744c20.206,9.143,42.927,11.118,64.408,5.6l-6.568,43.896
			c-2.513,16.81,9.078,32.475,25.888,34.988c13.801,2.063,27.263-5.418,32.8-18.228l17.2-39.752v102.184
			c-0.165,14.045-11.685,25.296-25.73,25.131c-10.224-0.12-19.382-6.352-23.246-15.819l-17.664-43.832
			c-6.596-16.215-25.088-24.013-41.303-17.417c-7.917,3.22-14.197,9.501-17.417,17.417l-17.664,43.84
			c-5.309,13.004-20.154,19.242-33.158,13.934c-9.469-3.865-15.701-13.027-15.818-23.254V321.019z M465.406,466.811h-448V282.315
			l79.4-22.52c11.804-3.372,24.343,2.091,29.912,13.032c1.762,3.508,2.682,7.378,2.688,11.304v125.768
			c0.156,22.882,18.832,41.304,41.714,41.148c16.757-0.115,31.794-10.311,38.102-25.836l17.664-43.832
			c3.292-8.019,12.462-11.851,20.481-8.559c3.883,1.594,6.965,4.676,8.559,8.559l17.664,43.832
			c8.613,21.199,32.781,31.403,53.98,22.79c15.525-6.307,25.722-21.345,25.836-38.102V284.131c0.006-3.926,0.926-7.796,2.688-11.304
			c5.569-10.941,18.108-16.404,29.912-13.032l79.4,22.52V466.811z"/>
	</g>
</g>
<g>
	<g>
		<path d="M223.886,38.443c-19.838,5.913-35.397,21.369-41.44,41.168l-3.272,10.664l15.296,4.688l3.272-10.664
			c4.481-14.682,16.017-26.143,30.728-30.528L223.886,38.443z"/>
	</g>
</g>
<g>
</g>
<g>
</g>
<g>
</g>
<g>
</g>
<g>
</g>
<g>
</g>
<g>
</g>
<g>
</g>
<g>
</g>
<g>
</g>
<g>
</g>
<g>
</g>
<g>
</g>
<g>
</g>
<g>
</g>
</svg>
