<?xml version="1.0" encoding="iso-8859-1"?>
<!-- Generator: Adobe Illustrator 19.0.0, SVG Export Plug-In . SVG Version: 6.00 Build 0)  -->
<svg version="1.1" id="Capa_1" xmlns="http://www.w3.org/2000/svg" xmlns:xlink="http://www.w3.org/1999/xlink" x="0px" y="0px"
	 viewBox="0 0 480 480" style="enable-background:new 0 0 480 480;" xml:space="preserve">
<g>
	<g>
		<path d="M309.6,0c-10.073-0.01-20.042,2.037-29.296,6.016C254.541,17,225.412,17,199.648,6.016
			c-37.782-16.153-81.505,1.38-97.658,39.162C98.041,54.414,96.004,64.355,96,74.4c0.036,30.999,7.196,61.576,20.928,89.368
			l11.4,38.528c1.015,3.388,4.135,5.708,7.672,5.704h24v40c0,4.418,3.582,8,8,8h24v18.616l-23.12-2.568l-1.76,15.904L192,290.72
			v31.896l-23.12-2.568l-1.76,15.904L192,338.72v31.896l-23.12-2.568l-1.76,15.904L192,386.72v31.896l-23.12-2.568l-1.76,15.904
			l25.416,2.824c0,0.064,0,0.128,0,0.192l16,40c1.219,3.051,4.179,5.046,7.464,5.032h48c3.274,0.001,6.218-1.992,7.432-5.032
			l12-30.088l27.656,3.072l1.76-15.904L288,429.28v-31.896l23.12,2.568l1.76-15.904L288,381.28v-31.896l23.12,2.568l1.76-15.904
			L288,333.28v-31.896l23.12,2.568l1.76-15.904L288,285.28V256h24c4.418,0,8-3.582,8-8v-40h24c3.544,0.001,6.666-2.33,7.672-5.728
			l11.4-38.528C376.8,135.959,383.961,105.391,384,74.4C383.969,33.323,350.677,0.031,309.6,0z M258.56,464h-37.144l-10.888-27.2
			l56.44,6.272L258.56,464z M272,427.504l-64-7.112v-31.896l64,7.112V427.504z M272,379.504l-64-7.112v-31.896l64,7.112V379.504z
			 M272,331.504l-64-7.112v-31.896l64,7.112V331.504z M272,283.504l-64-7.112V256h64V283.504z M304,240H176v-32h128V240z
			 M348.44,157.224c-0.208,0.419-0.379,0.855-0.512,1.304L338.024,192H141.976l-9.904-33.472c-0.133-0.449-0.304-0.885-0.512-1.304
			C118.731,131.497,112.036,103.148,112,74.4c0.008-32.253,26.16-58.394,58.414-58.386c7.891,0.002,15.699,1.603,22.954,4.706
			c29.787,12.704,63.469,12.704,93.256,0c29.652-12.689,63.977,1.062,76.666,30.714c3.106,7.258,4.708,15.071,4.71,22.966
			C367.964,103.148,361.269,131.497,348.44,157.224z"/>
	</g>
</g>
<g>
	<g>
		<path d="M156,33.056c-16.868,8.937-27.58,26.3-28,45.384V88h16v-9.6c0.476-13.344,8.125-25.39,20-31.496L156,33.056z"/>
	</g>
</g>
<g>
</g>
<g>
</g>
<g>
</g>
<g>
</g>
<g>
</g>
<g>
</g>
<g>
</g>
<g>
</g>
<g>
</g>
<g>
</g>
<g>
</g>
<g>
</g>
<g>
</g>
<g>
</g>
<g>
</g>
</svg>
