<?xml version="1.0" encoding="iso-8859-1"?>
<!-- Generator: Adobe Illustrator 19.0.0, SVG Export Plug-In . SVG Version: 6.00 Build 0)  -->
<svg version="1.1" id="Capa_1" xmlns="http://www.w3.org/2000/svg" xmlns:xlink="http://www.w3.org/1999/xlink" x="0px" y="0px"
	 viewBox="0 0 480 480" style="enable-background:new 0 0 480 480;" xml:space="preserve">
<g>
	<g>
		<path d="M309.6,72c-10.073-0.012-20.043,2.035-29.296,6.016c-25.765,10.976-54.891,10.976-80.656,0
			c-37.782-16.153-81.505,1.38-97.658,39.162c-3.949,9.236-5.987,19.177-5.99,29.222c0.038,31.241,7.311,62.048,21.248,90.008
			l10.952,21.92l13.6,122.32c1.875,16.893,17.09,29.068,33.983,27.193c13.872-1.54,24.971-12.222,27.041-26.025l17.528-116.872
			c1.613-10.851,11.718-18.34,22.569-16.727c8.649,1.286,15.441,8.077,16.727,16.727l17.528,116.872
			c2.52,16.809,18.19,28.393,34.999,25.873c13.803-2.069,24.485-13.169,26.025-27.041l13.6-122.32l10.952-21.92
			c13.937-27.96,21.21-58.767,21.248-90.008C383.969,105.323,350.677,72.031,309.6,72z M348.44,229.232h-0.024l-11.6,23.2
			c-0.419,0.846-0.69,1.758-0.8,2.696l-13.72,123.728c-0.888,8.108-8.181,13.96-16.289,13.071
			c-6.673-0.731-12.013-5.871-12.999-12.511L275.48,262.544c-2.951-19.595-21.228-33.088-40.823-30.137
			c-15.57,2.345-27.793,14.567-30.137,30.137l-17.528,116.872c-1.198,8.068-8.709,13.637-16.777,12.439
			c-6.64-0.986-11.78-6.326-12.511-12.999L143.952,255.12c-0.111-0.938-0.381-1.85-0.8-2.696l-11.6-23.2
			C118.73,203.495,112.038,175.147,112,146.4c0.006-32.253,26.157-58.395,58.41-58.39c7.895,0.001,15.707,1.604,22.966,4.71
			c29.785,12.704,63.463,12.704,93.248,0c29.652-12.689,63.977,1.062,76.666,30.714c3.106,7.258,4.708,15.071,4.71,22.966
			C367.961,175.15,361.266,203.501,348.44,229.232z"/>
	</g>
</g>
<g>
	<g>
		<path d="M155.56,105.344c-17.234,11.464-27.581,30.798-27.56,51.496V168h16v-11.16c-0.017-15.349,7.658-29.686,20.44-38.184
			L155.56,105.344z"/>
	</g>
</g>
<g>
	<g>
		<rect x="232" width="16" height="32"/>
	</g>
</g>
<g>
	<g>
		<rect x="232" y="448" width="16" height="32"/>
	</g>
</g>
<g>
	<g>
		<rect x="120" y="30.026" transform="matrix(0.866 -0.5 0.5 0.866 -5.8649 70.1618)" width="16" height="32"/>
	</g>
</g>
<g>
	<g>
		<rect x="344.001" y="418.001" transform="matrix(0.866 -0.5 0.5 0.866 -169.8346 234.1283)" width="16" height="32"/>
	</g>
</g>
<g>
	<g>
		<rect x="38.009" y="112.005" transform="matrix(0.4999 -0.8661 0.8661 0.4999 -87.8534 103.8599)" width="16" height="32"/>
	</g>
</g>
<g>
	<g>
		<rect x="425.99" y="335.999" transform="matrix(0.4999 -0.8661 0.8661 0.4999 -87.8266 551.8945)" width="16" height="32"/>
	</g>
</g>
<g>
	<g>
		<rect y="232" width="32" height="16"/>
	</g>
</g>
<g>
	<g>
		<rect x="448" y="232" width="32" height="16"/>
	</g>
</g>
<g>
	<g>
		<rect x="30.017" y="344.031" transform="matrix(0.8661 -0.4999 0.4999 0.8661 -169.8245 70.1518)" width="32" height="16"/>
	</g>
</g>
<g>
	<g>
		<rect x="418" y="119.99" transform="matrix(0.8661 -0.4999 0.4999 0.8661 -5.8598 234.1071)" width="32" height="16"/>
	</g>
</g>
<g>
	<g>
		<rect x="112.008" y="425.994" transform="matrix(0.4999 -0.8661 0.8661 0.4999 -311.8555 327.8954)" width="32" height="16"/>
	</g>
</g>
<g>
	<g>
		<rect x="335.994" y="38.011" transform="matrix(0.5 -0.866 0.866 0.5 136.1595 327.849)" width="32" height="16"/>
	</g>
</g>
<g>
	<g>
		<path d="M79.866,38.666c-0.568-3.357-3.197-5.986-6.554-6.554C60.276,29.934,50.062,19.717,47.888,6.68
			c-0.737-4.356-4.866-7.291-9.222-6.554c-3.357,0.568-5.986,3.197-6.554,6.554C29.938,19.717,19.724,29.934,6.688,32.112
			c-4.356,0.737-7.291,4.866-6.554,9.222c0.568,3.357,3.197,5.986,6.554,6.554c13.036,2.178,23.25,12.395,25.424,25.432
			c0.737,4.356,4.866,7.291,9.222,6.554c3.357-0.568,5.986-3.197,6.554-6.554c2.174-13.037,12.388-23.254,25.424-25.432
			C77.668,47.151,80.603,43.022,79.866,38.666z M40,51.424C36.881,46.985,33.015,43.119,28.576,40
			c4.439-3.119,8.305-6.985,11.424-11.424c3.119,4.439,6.985,8.305,11.424,11.424C46.985,43.119,43.119,46.985,40,51.424z"/>
	</g>
</g>
<g>
</g>
<g>
</g>
<g>
</g>
<g>
</g>
<g>
</g>
<g>
</g>
<g>
</g>
<g>
</g>
<g>
</g>
<g>
</g>
<g>
</g>
<g>
</g>
<g>
</g>
<g>
</g>
<g>
</g>
</svg>
