<?xml version="1.0" encoding="iso-8859-1"?>
<!-- Generator: Adobe Illustrator 19.0.0, SVG Export Plug-In . SVG Version: 6.00 Build 0)  -->
<svg version="1.1" id="Capa_1" xmlns="http://www.w3.org/2000/svg" xmlns:xlink="http://www.w3.org/1999/xlink" x="0px" y="0px"
	 viewBox="0 0 436.907 436.907" style="enable-background:new 0 0 436.907 436.907;" xml:space="preserve">
<g>
	<g>
		<path d="M134.263,385.819H13.65V279.992c11.387-2.652,42.694-7.707,82.227,4.267c5.028,1.522,10.721,3.697,17.401,6.646
			c3.468,1.533,7.489-0.034,9.008-3.485c1.522-3.448-0.038-7.482-3.485-9.001c-7.294-3.219-13.322-5.516-18.961-7.226
			c-54.228-16.422-93.556-3.454-95.215-2.895C1.86,269.24,0,271.841,0,274.763v117.883c0,3.768,3.055,6.827,6.827,6.827h127.44
			c3.772,0,6.823-3.058,6.823-6.827S138.035,385.819,134.263,385.819z"/>
	</g>
</g>
<g>
	<g>
		<path d="M233.905,385.819h-52.18c-3.772,0-6.827,3.058-6.827,6.827s3.055,6.827,6.827,6.827h52.18
			c3.775,0,6.827-3.058,6.827-6.827S237.677,385.819,233.905,385.819z"/>
	</g>
</g>
<g>
	<g>
		<path d="M404.975,268.295c-1.662-0.556-40.974-13.53-95.215,2.888c-4.919,1.492-10.305,3.502-16.473,6.147
			c-3.468,1.488-5.069,5.502-3.581,8.967c1.488,3.465,5.492,5.059,8.967,3.581c5.693-2.441,10.612-4.28,15.046-5.625
			c39.547-11.967,70.854-6.905,82.227-4.26v105.827H276.661c-3.772,0-6.827,3.058-6.827,6.827s3.055,6.827,6.827,6.827h126.112
			c3.772,0,6.827-3.055,6.827-6.83V274.76C409.6,271.834,407.743,269.233,404.975,268.295z"/>
	</g>
</g>
<g>
	<g>
		<path d="M204.8,105.926c-3.772,0-6.827,3.058-6.827,6.827v27.307c0,3.768,3.055,6.827,6.827,6.827s6.827-3.055,6.827-6.827
			v-27.307C211.627,108.984,208.572,105.926,204.8,105.926z"/>
	</g>
</g>
<g>
	<g>
		<path d="M247.716,174.421c-8.434,0-16.183,3.669-23.675,7.219c-6.458,3.058-12.558,5.946-18.019,5.946
			c-5.465,0-11.564-2.888-18.019-5.946c-7.496-3.55-15.241-7.219-23.675-7.219c-31.792,0-54.873,34.154-54.873,81.207
			c0,26.368,15.124,177.753,54.873,177.753c13.268,0,17.514-21.217,23.941-53.333c2.987-14.947,10.926-54.654,17.725-54.682
			c9.673,0.034,16.319,37.765,19.886,58.034c5.297,30.099,8.806,49.981,21.832,49.981c39.748,0,54.873-151.385,54.876-177.753
			C302.589,208.575,279.508,174.421,247.716,174.421z M248.596,420.099c-3.622-4.386-7.267-25.098-9.714-38.991
			c-5.966-33.86-12.134-68.871-32.887-68.942c-17.626,0.078-23.672,30.297-30.672,65.294c-3.065,15.34-7.653,38.267-11.786,42.656
			c-18.603-3.014-40.881-110.865-40.881-164.489c0-38.772,17.913-68.007,41.673-68.007c5.465,0,11.564,2.884,18.019,5.943
			c7.496,3.55,15.24,7.219,23.675,7.219c8.427,0,16.176-3.669,23.668-7.216c6.458-3.058,12.558-5.949,18.026-5.949
			c23.76,0,41.673,29.239,41.673,68.007C289.389,309.163,267.182,416.754,248.596,420.099z"/>
	</g>
</g>
<g>
	<g>
		<path d="M171.885,194.673c-22.586,0-40.96,18.374-40.96,40.96c0,3.768,3.055,6.827,6.827,6.827c3.775,0,6.827-3.055,6.827-6.827
			c0-15.056,12.247-27.307,27.307-27.307c3.772,0,6.827-3.058,6.827-6.827S175.657,194.673,171.885,194.673z"/>
	</g>
</g>
<g>
	<g>
		<path d="M245.76,3.526h-81.92c-3.772,0-6.827,3.058-6.827,6.827V71.84c0,26.324,21.439,47.739,47.787,47.739
			s47.787-21.415,47.787-47.739V10.353C252.587,6.584,249.532,3.526,245.76,3.526z M238.933,71.84
			c0,18.797-15.312,34.086-34.133,34.086s-34.133-15.288-34.133-34.086V17.179h68.267V71.84z"/>
	</g>
</g>
<g>
	<g>
		<path d="M204.8,51.313h-34.133c-3.772,0-6.827,3.058-6.827,6.827s3.055,6.827,6.827,6.827H204.8c3.772,0,6.827-3.058,6.827-6.827
			S208.572,51.313,204.8,51.313z"/>
	</g>
</g>
<g>
	<g>
		<path d="M204.8,133.233c-11.295,0-20.48,9.185-20.48,20.48c0,11.295,9.185,20.48,20.48,20.48c11.295,0,20.48-9.185,20.48-20.48
			C225.28,142.418,216.095,133.233,204.8,133.233z M204.8,160.539c-3.768,0-6.827-3.062-6.827-6.827
			c0-3.765,3.058-6.827,6.827-6.827s6.827,3.062,6.827,6.827C211.627,157.478,208.568,160.539,204.8,160.539z"/>
	</g>
</g>
<g>
	<g>
		<path d="M430.08,24.006H245.76c-3.772,0-6.827,3.058-6.827,6.827v27.307c0,3.768,3.055,6.827,6.827,6.827h184.32
			c3.772,0,6.827-3.055,6.827-6.827V30.833C436.907,27.064,433.852,24.006,430.08,24.006z M423.253,51.313H252.587V37.659h170.667
			V51.313z"/>
	</g>
</g>
<g>
</g>
<g>
</g>
<g>
</g>
<g>
</g>
<g>
</g>
<g>
</g>
<g>
</g>
<g>
</g>
<g>
</g>
<g>
</g>
<g>
</g>
<g>
</g>
<g>
</g>
<g>
</g>
<g>
</g>
</svg>
