<?xml version="1.0" encoding="iso-8859-1"?>
<!-- Generator: Adobe Illustrator 19.0.0, SVG Export Plug-In . SVG Version: 6.00 Build 0)  -->
<svg version="1.1" id="Capa_1" xmlns="http://www.w3.org/2000/svg" xmlns:xlink="http://www.w3.org/1999/xlink" x="0px" y="0px"
	 viewBox="0 0 384.509 384.509" style="enable-background:new 0 0 384.509 384.509;" xml:space="preserve">
<g>
	<g>
		<path d="M138.489,62.775c-8.434,0-16.183,3.669-23.675,7.219c-6.458,3.058-12.558,5.946-18.019,5.946
			c-5.465,0-11.564-2.888-18.019-5.946c-7.496-3.55-15.241-7.219-23.675-7.219c-31.792,0-54.873,34.154-54.873,81.207
			c0,26.368,15.124,177.753,54.873,177.753c13.268,0,17.514-21.217,23.941-53.333c2.987-14.947,10.926-54.654,17.725-54.682
			c9.667,0.034,16.312,37.755,19.886,58.023c5.297,30.106,8.8,49.992,21.832,49.992c39.748,0,54.873-151.385,54.876-177.753
			C193.362,96.928,170.281,62.775,138.489,62.775z M139.366,308.453c-3.622-4.379-7.274-25.102-9.721-39.001
			c-5.96-33.853-12.128-68.861-32.881-68.932c-17.626,0.078-23.672,30.297-30.672,65.294c-3.065,15.34-7.653,38.267-11.786,42.656
			c-18.603-3.014-40.881-110.865-40.881-164.489c0-38.772,17.913-68.007,41.673-68.007c5.468,0,11.568,2.884,18.019,5.943
			c7.496,3.55,15.241,7.219,23.675,7.219c8.428,0,16.176-3.669,23.668-7.216c6.458-3.058,12.558-5.949,18.026-5.949
			c23.76,0,41.673,29.239,41.673,68.007C180.159,197.516,157.952,305.108,139.366,308.453z"/>
	</g>
</g>
<g>
	<g>
		<path d="M329.636,62.775c-8.434,0-16.183,3.669-23.675,7.219c-6.458,3.058-12.558,5.946-18.019,5.946
			c-5.465,0-11.564-2.888-18.019-5.946c-7.496-3.55-15.241-7.219-23.675-7.219c-31.792,0-54.873,34.154-54.873,81.207
			c0,26.368,15.125,177.753,54.873,177.753c13.268,0,17.514-21.217,23.941-53.333c2.987-14.947,10.926-54.654,17.725-54.682
			c9.667,0.034,16.312,37.755,19.886,58.023c5.297,30.106,8.8,49.992,21.832,49.992c39.748,0,54.873-151.385,54.876-177.753
			C384.509,96.928,361.428,62.775,329.636,62.775z M330.513,308.453c-3.622-4.379-7.274-25.102-9.721-39.001
			c-5.96-33.853-12.128-68.861-32.881-68.932c-17.626,0.078-23.671,30.297-30.672,65.294c-3.065,15.34-7.653,38.267-11.786,42.656
			c-18.603-3.014-40.881-110.865-40.881-164.489c0-38.772,17.913-68.007,41.673-68.007c5.468,0,11.568,2.884,18.019,5.943
			c7.496,3.55,15.241,7.219,23.675,7.219c8.428,0,16.176-3.669,23.668-7.216c6.458-3.058,12.558-5.949,18.026-5.949
			c23.76,0,41.673,29.239,41.673,68.007C371.306,197.516,349.099,305.108,330.513,308.453z"/>
	</g>
</g>
<g>
	<g>
		<path d="M375.467,130.813h-67.048c-3.772,0-6.827,3.058-6.827,6.827s3.055,6.827,6.827,6.827h67.048
			c3.772,0,6.827-3.058,6.827-6.827S379.238,130.813,375.467,130.813z"/>
	</g>
</g>
<g>
	<g>
		<path d="M262.438,130.813h-143.36c-3.772,0-6.827,3.058-6.827,6.827s3.055,6.827,6.827,6.827h143.36
			c3.775,0,6.827-3.058,6.827-6.827S266.209,130.813,262.438,130.813z"/>
	</g>
</g>
<g>
	<g>
		<path d="M70.54,130.813H6.827c-3.772,0-6.827,3.058-6.827,6.827s3.055,6.827,6.827,6.827H70.54c3.772,0,6.827-3.058,6.827-6.827
			S74.312,130.813,70.54,130.813z"/>
	</g>
</g>
<g>
	<g>
		<path d="M116.053,103.506h-40.96c-3.772,0-6.827,3.058-6.827,6.827v54.613c0,3.768,3.055,6.827,6.827,6.827h40.96
			c3.772,0,6.827-3.058,6.827-6.827v-54.613C122.88,106.564,119.825,103.506,116.053,103.506z M109.227,158.119H81.92v-40.96h27.307
			V158.119z"/>
	</g>
</g>
<g>
	<g>
		<path d="M308.419,103.506h-40.96c-3.772,0-6.827,3.058-6.827,6.827v54.613c0,3.768,3.055,6.827,6.827,6.827h40.96
			c3.775,0,6.827-3.058,6.827-6.827v-54.613C315.245,106.564,312.19,103.506,308.419,103.506z M301.592,158.119h-27.307v-40.96
			h27.307V158.119z"/>
	</g>
</g>
<g>
</g>
<g>
</g>
<g>
</g>
<g>
</g>
<g>
</g>
<g>
</g>
<g>
</g>
<g>
</g>
<g>
</g>
<g>
</g>
<g>
</g>
<g>
</g>
<g>
</g>
<g>
</g>
<g>
</g>
</svg>
