<?xml version="1.0" encoding="iso-8859-1"?>
<!-- Generator: Adobe Illustrator 19.0.0, SVG Export Plug-In . SVG Version: 6.00 Build 0)  -->
<svg version="1.1" id="Capa_1" xmlns="http://www.w3.org/2000/svg" xmlns:xlink="http://www.w3.org/1999/xlink" x="0px" y="0px"
	 viewBox="0 0 411.484 411.484" style="enable-background:new 0 0 411.484 411.484;" xml:space="preserve">
<g>
	<g>
		<path d="M274.319,296.12l-56.665-56.668c-2.577-2.574-6.752-2.574-9.332,0c-2.577,2.577-2.577,6.755,0,9.332l56.665,56.668
			c1.29,1.287,2.976,1.932,4.666,1.932s3.376-0.649,4.666-1.932C276.896,302.875,276.896,298.697,274.319,296.12z"/>
	</g>
</g>
<g>
	<g>
		<path d="M304.404,270.759l-56.979-56.982c-2.577-2.574-6.752-2.574-9.332,0c-2.577,2.577-2.577,6.755,0,9.332l56.982,56.986
			c1.29,1.287,2.976,1.932,4.666,1.932c1.69,0,3.376-0.645,4.663-1.935C306.981,277.514,306.981,273.336,304.404,270.759z"/>
	</g>
</g>
<g>
	<g>
		<path d="M402.104,361.516l-86.972-86.979c-7.963-7.953-20.941-7.936-28.925,0.051l-15.026,15.025
			c-7.987,7.987-8.008,20.961-0.044,28.925l86.972,86.972c3.85,3.854,8.97,5.973,14.418,5.973c0.021,0,0.038,0,0.058-0.007
			c5.451-0.014,10.585-2.15,14.449-6.018l15.022-15.022c3.854-3.85,5.987-8.98,6.007-14.438
			C408.081,370.517,405.965,365.374,402.104,361.516z M392.4,380.785l-15.026,15.022c-1.297,1.304-3.075,2.246-4.847,2.021
			c-1.802-0.003-3.492-0.703-4.765-1.973l-86.972-86.972c-2.638-2.638-2.618-6.953,0.044-9.615l15.026-15.026
			c1.341-1.341,3.099-2.01,4.85-2.01c1.731,0,3.454,0.652,4.765,1.963l86.972,86.979c1.27,1.266,1.966,2.966,1.959,4.779
			C394.4,377.781,393.687,379.498,392.4,380.785z"/>
	</g>
</g>
<g>
	<g>
		<path d="M139.953,0C64.669,0,3.42,61.249,3.42,136.533s61.249,136.533,136.533,136.533s136.533-61.249,136.533-136.533
			S215.238,0,139.953,0z M139.953,259.413c-67.758,0-122.88-55.122-122.88-122.88s55.122-122.88,122.88-122.88
			c67.758,0,122.88,55.122,122.88,122.88S207.711,259.413,139.953,259.413z"/>
	</g>
</g>
<g>
	<g>
		<path d="M165.796,61.443c-5.782,0-11.032,2.485-15.66,4.68c-3.652,1.731-7.107,3.366-9.817,3.366c-2.71,0-6.164-1.635-9.817-3.366
			c-4.635-2.191-9.882-4.68-15.664-4.68c-21.05,0-36.328,22.047-36.328,52.419c0,12.803,2.891,39.311,8.25,63.229
			c9.677,43.192,20.661,48.189,28.078,48.189c10.4,0,13.175-13.862,17.37-34.84c1.867-9.325,5.222-26.105,8.53-30.648
			c3.929,4.055,7.298,23.166,8.967,32.638c3.485,19.78,5.782,32.85,16.09,32.85c7.417,0,18.401-4.997,28.078-48.189
			c5.359-23.914,8.25-50.425,8.25-63.229C202.124,83.49,186.846,61.443,165.796,61.443z M167.54,210.446
			c-1.601-4.54-3.236-13.827-4.393-20.388c-3.843-21.821-7.817-44.387-22.859-44.442c-13.049,0.058-16.951,19.562-21.47,42.144
			c-1.478,7.404-3.591,17.961-5.53,22.743c-9.414-9.155-21.122-65.84-21.122-96.645c0-22.098,9.748-38.765,22.675-38.765
			c2.71,0,6.161,1.638,9.81,3.366c4.635,2.191,9.882,4.68,15.664,4.68c5.782,0,11.032-2.485,15.66-4.68
			c3.652-1.731,7.107-3.366,9.817-3.366c12.93,0,22.675,16.664,22.675,38.765C188.467,144.616,176.797,201.172,167.54,210.446z"/>
	</g>
</g>
<g>
</g>
<g>
</g>
<g>
</g>
<g>
</g>
<g>
</g>
<g>
</g>
<g>
</g>
<g>
</g>
<g>
</g>
<g>
</g>
<g>
</g>
<g>
</g>
<g>
</g>
<g>
</g>
<g>
</g>
</svg>
