<svg height="487pt" viewBox="-40 0 487 487.9" width="487pt" xmlns="http://www.w3.org/2000/svg"><path fill="white" d="m396.050781 154.199219c7.800781-7.820313 7.800781-20.476563 0-28.300781l-15.199219-15.199219c-7.824218-7.800781-20.480468-7.800781-28.300781 0l-18.601562 18.699219c-28.636719-24.070313-63.394531-39.71875-100.398438-45.199219v-22.199219h10.597657c11.203124-.152344 20.25-9.199219 20.402343-20.398438v-21.5c0-11-9.402343-20.101562-20.402343-20.101562h-81.199219c-11 0-20.398438 9.101562-20.398438 20.101562v21.5c.1875 11.1875 9.210938 20.210938 20.398438 20.398438h10.601562v22.199219c-98 14.402343-173.101562 99-173.101562 200.800781 0 111.898438 91.101562 202.898438 203 202.898438 111.902343 0 203-91 203-202.898438.082031-38.722656-11.03125-76.644531-32-109.199219zm-29.402343-29.300781 15.203124 15.203124-19.101562 19.097657c-4.5-5.597657-9.199219-11-14.300781-16.199219zm-204.097657-82.898438v-22h82v22zm31 20h20v20.300781c-4-.199219-6.800781-.199219-10-.199219s-6 .097657-10 .199219zm10 405.898438c-100.902343 0-182.902343-82.097657-182.902343-182.898438s82-183 182.902343-183c100.898438 0 182.898438 82.101562 182.898438 183s-82 182.898438-182.898438 182.898438zm0 0"/><path fill="white" d="m203.550781 122h-1.902343c-87.796876 1-159.097657 71.800781-161 159.398438-.714844 1.394531-1.089844 2.9375-1.097657 4.5-.019531 1.644531.394531 3.265624 1.199219 4.703124 3 86.398438 73.601562 156 160.398438 157.199219.464843.082031.933593.117188 1.402343.097657.402344.019531.804688-.015626 1.199219-.097657 89.800781 0 162.800781-73 162.800781-162.800781 0-89.898438-73.101562-163-163-163zm9 305.601562v-18.601562c0-5.523438-4.476562-10-10-10-5.523437 0-10 4.476562-10 10v18.5c-70.101562-5.398438-126.199219-61.398438-131.5-131.5h17.5c5.523438 0 10-4.476562 10-10s-4.476562-10-10-10h-17.699219c4.550782-71.09375 60.675782-128.03125 131.699219-133.601562v18.601562c0 5.523438 4.476563 10 10 10 5.523438 0 10-4.476562 10-10v-18.699219c71.832031 4.632813 129.066407 61.867188 133.699219 133.699219h-19.699219c-5.523437 0-10 4.476562-10 10s4.476563 10 10 10h19.5c-5.402343 70.699219-62.5 127.199219-133.5 131.601562zm0 0"/><path fill="white" d="m260.449219 277h-46.898438v-66.101562c0-5.519532-4.476562-10-10-10-5.523437 0-10 4.480468-10 10v76.203124c-.058593 2.605469.941407 5.125 2.765625 6.988282 1.824219 1.863281 4.324219 2.914062 6.933594 2.910156h57.101562c5.519532.027344 10.019532-4.425781 10.046876-9.949219.027343-5.523437-4.425782-10.023437-9.949219-10.050781zm0 0"/></svg>